<?xml version="1.0" encoding="UTF-8" standalone="no"?>
<!DOCTYPE svg PUBLIC "-//W3C//DTD SVG 20010904//EN" "http://www.w3.org/TR/2001/REC-SVG-20010904/DTD/svg10.dtd">
<svg version="1.0" xmlns="http://www.w3.org/2000/svg" width="512" height="512" viewBox="0 0 750.441462 965.709638" preserveAspectRatio="xMidYMid meet">
<metadata>Created by Svg.la</metadata>
<g transform="translate(-173.180897,965.706725) scale(0.100000,-0.100000)" fill="#000000" stroke="none">
<path d="M4915 9636 c-295 -64 -467 -169 -750 -452 -133 -134 -204 -225 -283 -364 -33 -58 -84 -144 -115 -190 -77 -119 -170 -305 -170 -340 0 -36 47 -150 84 -205 38 -57 218 -225 241 -225 4 0 8 -4 8 -10 0 -16 -41 -11 -89 10 -48 22 -62 20 -40 -6 31 -38 73 -45 156 -28 43 9 85 20 95 25 26 14 28 11 17 -17 -5 -15 -8 -28 -7 -30 7 -6 46 34 59 61 27 54 36 38 18 -32 -23 -87 -25 -276 -4 -393 8 -47 15 -94 15 -105 -1 -39 -37 25 -60 105 -36 125 -33 119 -40 85 -7 -30 -7 -29 -35 30 -22 46 -30 79 -33 142 l-4 82 -47 7 c-25 4 -60 13 -78 21 -18 7 -33 9 -33 5 0 -20 42 -45 84 -49 43 -5 45 -7 40 -32 -14 -68 50 -249 106 -301 35 -33 75 -137 59 -156 -8 -10 -8 -22 -1 -44 12 -34 11 -35 -26 -16 -71 36 -156 24 -183 -26 -18 -31 -25 -270 -10 -337 6 -29 8 -63 5 -77 -6 -23 -10 -24 -75 -24 -42 0 -69 -4 -69 -10 0 -23 34 -77 69 -107 l35 -32 -29 -32 c-17 -17 -57 -45 -90 -61 l-59 -30 26 -23 26 -22 -32 -55 c-17 -30 -37 -62 -45 -72 -13 -16 -8 -55 14 -109 6 -14 -5 -30 -43 -67 -47 -45 -50 -50 -32 -60 10 -5 30 -10 44 -10 32 0 32 -4 0 -73 -32 -71 -39 -173 -11 -171 13 1 17 -6 17 -37 0 -43 21 -103 47 -131 9 -10 14 -20 12 -22 -2 -2 -69 -22 -149 -46 -80 -23 -152 -49 -161 -57 -9 -8 -24 -51 -33 -101 -9 -48 -19 -99 -22 -115 -5 -24 -2 -29 26 -38 21 -8 29 -16 26 -26 -3 -8 -9 -38 -12 -67 -7 -61 13 -113 46 -118 19 -3 13 -15 -51 -108 -59 -87 -88 -138 -137 -242 -2 -5 9 -8 24 -8 25 0 26 -2 14 -14 -12 -12 -24 -13 -62 -4 -51 12 -64 28 -23 28 35 0 31 16 -6 24 -25 5 -30 9 -24 23 51 119 48 144 -18 209 -79 76 -144 99 -277 99 -92 0 -111 -3 -155 -25 -42 -21 -53 -32 -67 -70 -12 -34 -21 -44 -35 -42 -10 2 -53 6 -95 9 -67 4 -84 2 -132 -20 -37 -17 -65 -39 -86 -69 -31 -41 -32 -46 -28 -120 l5 -76 -33 -7 c-34 -6 -75 -49 -109 -115 -26 -49 -24 -119 3 -157 27 -38 27 -39 4 -64 -21 -22 -42 -83 -42 -123 0 -42 27 -96 66 -133 l36 -34 -16 -33 c-30 -63 -16 -105 53 -169 23 -22 41 -47 41 -59 0 -12 36 -95 81 -186 77 -156 84 -166 142 -210 33 -26 97 -80 141 -121 108 -98 207 -172 286 -212 53 -26 80 -33 146 -37 115 -6 174 13 268 88 116 93 177 163 387 438 39 52 72 92 74 90 3 -3 40 -293 76 -592 14 -116 7 -319 -16 -446 -8 -47 -15 -126 -15 -176 0 -98 5 -110 72 -159 l27 -20 3 -255 c2 -140 2 -385 1 -545 -2 -167 2 -318 8 -355 13 -79 22 -467 12 -473 -5 -2 -39 -1 -78 4 -38 5 -137 5 -220 1 l-150 -7 -3 -31 c-4 -40 -16 -43 -276 -51 l-198 -6 -32 -32 c-26 -26 -44 -33 -111 -44 -44 -7 -118 -24 -164 -38 -47 -13 -141 -31 -210 -38 -260 -30 -268 -32 -386 -95 -60 -32 -150 -79 -200 -105 -108 -57 -197 -115 -203 -132 -6 -20 52 -16 79 5 42 32 210 128 334 190 109 55 129 62 215 71 324 37 406 49 455 67 12 5 16 4 12 -3 -4 -6 -58 -36 -120 -67 -62 -30 -153 -81 -202 -112 -50 -31 -115 -71 -145 -89 -64 -38 -102 -75 -78 -75 8 0 60 31 116 69 55 38 149 95 209 127 59 31 123 65 141 76 105 63 -59 -65 -257 -200 -92 -63 -101 -72 -75 -72 21 0 58 21 129 73 169 123 174 125 80 27 -60 -62 -85 -95 -76 -98 8 -3 55 37 115 98 l101 102 60 2 c150 6 617 68 623 84 5 16 -55 16 -194 -2 -60 -8 -148 -17 -196 -21 -86 -7 -88 -7 -88 15 0 27 -21 22 -35 -8 -7 -17 -18 -22 -47 -22 -20 0 -45 -3 -55 -6 -20 -6 -8 5 138 134 l94 82 190 7 c105 3 213 6 240 7 48 1 50 2 53 32 l3 31 82 6 c105 9 241 9 291 0 l39 -6 -9 -141 c-10 -162 -10 -304 0 -359 6 -32 10 -37 35 -37 l29 0 6 253 c4 145 3 336 -3 452 -19 358 -12 1411 9 1445 5 8 28 2 76 -20 188 -87 462 -161 724 -197 361 -49 890 7 1352 144 15 5 15 0 -4 -48 -25 -66 -20 -125 14 -177 14 -20 28 -55 32 -77 15 -81 146 -565 160 -593 19 -36 35 -41 111 -32 33 4 63 5 67 1 4 -4 28 -96 54 -206 47 -205 127 -445 222 -672 47 -111 52 -130 52 -198 l0 -75 30 0 c34 0 33 -5 20 111 -7 59 -20 108 -41 155 -46 99 -112 284 -143 400 -15 54 -32 112 -37 128 -13 42 -12 44 24 44 47 0 217 30 295 53 37 10 96 19 132 20 36 0 107 6 158 13 51 6 96 8 98 4 8 -13 -26 -179 -44 -217 -14 -31 -14 -35 1 -46 16 -11 16 -14 -3 -38 -21 -26 -26 -47 -12 -47 9 0 77 78 145 166 l46 62 158 -81 c87 -44 177 -92 199 -107 23 -15 59 -33 80 -40 60 -20 283 -120 443 -199 79 -39 150 -71 157 -71 8 0 17 -6 20 -14 9 -22 232 -216 249 -216 29 0 14 25 -42 70 -90 72 -124 102 -120 107 2 2 35 -15 73 -38 38 -23 92 -52 119 -63 58 -24 253 -134 261 -147 3 -5 24 -9 46 -9 40 0 41 0 23 20 -24 26 -200 126 -283 160 -37 15 -139 66 -227 112 -243 130 -497 251 -625 298 -63 24 -132 54 -153 67 -44 28 -246 130 -330 167 -55 24 -58 27 -53 53 6 25 0 33 -50 72 -53 41 -59 43 -88 33 -17 -6 -112 -20 -212 -31 -196 -23 -248 -31 -397 -62 -55 -12 -102 -17 -106 -13 -8 10 -61 258 -61 285 0 13 19 21 78 34 42 10 85 21 95 26 21 12 22 46 2 119 -19 72 -20 70 14 70 35 0 84 38 99 77 6 16 23 73 38 128 29 111 33 120 116 258 58 97 79 157 93 270 l6 47 60 -42 c91 -66 115 -79 132 -72 9 3 54 56 99 117 46 62 122 154 170 205 49 51 88 101 88 111 0 11 -30 54 -66 95 -43 49 -63 80 -58 88 5 7 41 56 82 108 40 52 106 147 145 210 39 63 106 163 148 222 69 96 197 296 228 356 7 13 18 57 26 100 l13 76 -38 56 c-89 130 -240 308 -431 505 -69 71 -162 173 -206 225 -44 52 -133 145 -197 207 -64 61 -152 156 -195 210 -43 54 -104 123 -135 153 -48 47 -56 59 -56 92 0 35 1 37 29 33 17 -2 34 2 40 9 14 17 61 183 61 217 0 34 -1 35 -161 93 -116 42 -503 217 -523 236 -4 4 -3 25 4 46 7 21 13 81 14 134 l1 95 33 3 c41 4 42 25 3 79 -33 45 -61 97 -61 112 0 5 9 13 20 16 37 12 29 38 -48 177 -36 63 -38 70 -18 62 36 -14 22 23 -34 85 l-61 69 31 62 c87 173 101 402 32 540 l-28 55 -56 3 c-63 3 -88 -6 -162 -63 l-46 -35 0 34 c0 39 -14 53 -35 36 -20 -17 -20 -3 5 194 11 88 20 195 20 238 0 72 2 78 20 78 11 0 39 17 63 38 23 21 58 47 77 58 256 137 400 273 429 406 9 39 7 48 -30 118 -21 42 -90 143 -152 226 -62 82 -148 196 -192 254 -149 197 -267 311 -471 451 -229 158 -315 198 -542 255 -153 39 -197 40 -337 10z m278 -32 c104 -27 406 -153 471 -196 133 -90 238 -179 386 -328 176 -176 315 -344 391 -473 28 -48 76 -118 105 -155 34 -42 54 -77 54 -93 0 -43 -57 -143 -116 -203 -49 -50 -140 -120 -199 -152 -83 -46 -107 -56 -115 -48 -10 10 4 163 19 220 8 27 4 38 -32 85 -185 246 -445 481 -669 604 -38 20 -68 41 -68 46 0 6 14 18 31 27 18 9 43 27 58 38 l25 22 -84 86 c-46 47 -88 86 -94 86 -5 0 -21 -10 -34 -22 l-24 -23 -20 25 c-11 14 -32 39 -46 55 -15 17 -33 42 -39 58 l-13 27 -115 0 c-90 0 -115 -3 -115 -14 0 -7 -9 -25 -20 -39 -11 -14 -20 -35 -20 -46 0 -13 -6 -21 -17 -21 -9 0 -27 -10 -39 -21 l-23 -21 -25 28 -25 29 -90 -90 c-50 -49 -90 -92 -90 -95 0 -3 22 -23 49 -44 49 -39 66 -76 34 -76 -9 0 -62 -30 -118 -66 -105 -69 -256 -213 -353 -336 -26 -34 -71 -87 -98 -117 -28 -31 -67 -77 -88 -102 l-36 -47 14 -88 c11 -70 12 -92 2 -105 -78 -104 -70 -98 -103 -81 -82 43 -170 140 -224 250 -45 91 -46 112 -11 184 65 135 305 500 433 659 81 101 254 272 348 343 118 90 277 167 433 211 138 38 217 43 310 19z m-5 -396 c-3 -31 -6 -33 -44 -36 l-42 -3 -6 -61 c-4 -34 -3 -65 2 -70 5 -5 35 -12 66 -15 61 -6 67 0 42 40 -8 12 -16 33 -18 47 -7 54 86 30 117 -31 17 -31 0 -55 -17 -25 -9 16 -38 23 -38 9 0 -5 -3 -18 -6 -30 -6 -21 -3 -23 34 -23 29 0 48 7 71 27 35 31 39 48 15 61 -9 5 -14 17 -12 28 4 16 15 8 66 -44 34 -35 62 -70 62 -78 0 -8 -15 -16 -38 -20 l-38 -6 -12 -79 c-11 -80 -33 -138 -49 -129 -4 3 -9 -5 -11 -16 -8 -59 -145 -163 -195 -149 -18 5 -19 4 -7 -5 12 -9 8 -11 -18 -6 -23 4 -31 2 -26 -6 5 -8 -10 -9 -56 -4 -70 8 -160 48 -160 71 0 14 -24 32 -45 34 -5 1 -10 4 -10 9 0 4 -12 23 -27 43 -36 47 -58 110 -58 169 0 67 -6 77 -38 72 -17 -2 -33 2 -41 11 -10 13 -2 26 53 84 50 53 67 65 77 56 9 -9 5 -18 -19 -38 l-31 -26 30 -30 c24 -23 38 -29 75 -29 44 0 45 1 42 28 -3 27 -15 32 -50 17 -29 -12 -21 14 16 51 36 36 75 44 96 19 9 -11 7 -22 -11 -54 -12 -23 -21 -42 -18 -44 2 -2 29 -1 59 2 l55 6 0 65 0 65 -37 -3 -38 -3 0 41 0 40 121 0 120 0 -3 -32z m47 -18 c3 -5 1 -10 -4 -10 -6 0 -11 5 -11 10 0 6 2 10 4 10 3 0 8 -4 11 -10z m269 -372 c39 -23 102 -67 140 -97 38 -31 93 -75 121 -98 62 -49 197 -184 191 -191 -3 -2 -18 5 -34 16 -43 31 -197 107 -277 137 -55 20 -287 75 -319 75 -4 0 4 15 17 33 30 39 62 102 71 140 3 15 9 27 13 27 4 0 39 -19 77 -42z m-790 -11 c3 -19 22 -60 41 -92 20 -32 34 -59 33 -60 -2 -1 -55 -14 -118 -29 -137 -33 -237 -71 -344 -132 -44 -24 -81 -43 -83 -41 -6 7 124 152 197 220 60 55 156 122 240 167 21 11 27 5 34 -33z m599 -387 c95 -16 195 -34 223 -40 61 -13 171 -75 329 -185 97 -68 115 -84 122 -114 5 -19 20 -43 36 -55 27 -20 29 -20 38 -3 10 17 12 16 30 -6 51 -66 40 -112 -19 -75 -18 11 -31 23 -28 26 3 2 17 -3 32 -13 17 -11 25 -13 22 -4 -6 17 -214 160 -292 199 -107 55 -248 108 -346 130 -196 42 -551 35 -747 -16 -96 -25 -308 -107 -448 -175 -98 -46 -187 -104 -254 -165 -54 -49 -59 -49 -37 -6 16 31 225 222 325 297 103 78 243 144 326 155 39 5 124 21 190 35 108 24 218 40 298 44 16 0 106 -12 200 -29z m-123 -168 c0 -5 18 -17 40 -27 40 -18 52 -35 25 -35 -28 0 -121 23 -147 36 -43 22 -33 34 27 34 30 0 55 -4 55 -8z m-286 -44 c22 -16 59 -34 83 -40 24 -6 45 -14 48 -18 10 -16 -105 -54 -213 -69 -62 -9 -110 -20 -106 -24 12 -11 138 -8 196 5 29 7 95 34 146 60 85 44 98 48 145 43 101 -11 149 26 85 65 l-33 20 57 0 c63 0 166 -21 244 -50 77 -28 410 -193 429 -213 7 -7 5 -7 -4 -2 -7 4 -3 -7 10 -24 23 -32 24 -38 23 -199 -1 -120 -9 -212 -26 -327 l-24 -160 -8 247 c-9 334 -26 466 -64 504 -15 16 -17 16 -20 1 -2 -9 1 -25 7 -35 23 -43 33 -176 41 -522 9 -391 13 -423 67 -538 28 -59 50 -75 90 -67 16 3 6 -3 -22 -15 -67 -27 -168 -41 -323 -43 -117 -1 -133 1 -202 27 -41 16 -102 43 -135 60 -33 17 -63 32 -66 34 -4 2 -9 -35 -10 -81 -4 -73 -8 -89 -33 -126 -76 -109 -295 -158 -460 -103 -138 46 -206 120 -206 224 0 155 106 260 290 287 41 6 86 13 100 15 14 2 -9 4 -52 5 l-76 1 14 53 c9 32 13 97 12 172 l-1 120 -8 -120 c-5 -66 -15 -145 -22 -175 -12 -48 -17 -55 -43 -60 -16 -4 -40 -12 -52 -19 -13 -7 -25 -11 -28 -9 -2 2 8 26 21 53 56 109 9 262 -96 315 -48 25 -92 25 -144 1 -80 -37 -136 -115 -151 -209 -6 -36 -10 -42 -25 -37 -26 8 -25 -22 1 -55 11 -14 20 -28 20 -32 0 -4 -21 -17 -47 -29 -60 -28 -36 -37 47 -19 30 7 85 12 122 11 64 -1 183 -23 196 -35 3 -3 -7 -15 -21 -26 -27 -22 -87 -131 -87 -160 0 -11 -16 -23 -47 -35 -27 -10 -73 -31 -105 -46 -72 -36 -224 -89 -256 -89 -20 0 -117 24 -180 45 -9 3 0 18 24 45 93 100 141 181 167 283 14 52 13 73 -10 274 -28 246 -27 338 7 480 26 109 26 109 218 214 193 105 418 196 447 181 6 -3 28 -19 49 -34z m156 7 c58 -39 51 -42 -42 -19 -71 18 -108 39 -86 47 36 15 79 5 128 -28z m990 -156 c0 -21 -30 -7 -44 21 l-15 30 30 -20 c16 -12 29 -26 29 -31z m7 -191 c-3 -8 -6 -5 -6 6 -1 11 2 17 5 13 3 -3 4 -12 1 -19z m-1388 -422 c15 -8 34 -23 42 -32 13 -16 12 -17 -6 -9 -66 27 -119 9 -162 -57 -23 -34 -27 -52 -28 -107 0 -36 4 -74 9 -83 7 -16 2 -18 -53 -18 l-61 0 0 58 c0 80 23 150 65 195 58 63 134 84 194 53z m46 -107 c6 -19 -10 -59 -23 -59 -18 0 -52 33 -52 50 0 39 63 47 75 9z m1610 -94 c27 -53 30 -72 33 -165 3 -74 -1 -125 -13 -170 -19 -78 -73 -190 -91 -190 -23 0 -25 19 -4 32 29 18 25 35 -11 43 -31 7 -139 99 -139 118 0 6 14 41 32 79 31 67 32 69 45 46 13 -22 14 -22 8 9 -5 24 -1 40 15 63 28 40 45 38 70 -7 23 -41 18 -8 -5 37 -12 23 -11 26 13 37 l27 11 -28 1 c-16 1 -43 -9 -59 -21 -34 -24 -108 -133 -138 -202 -10 -25 -23 -46 -27 -46 -9 0 -21 27 -50 107 l-15 42 46 64 c82 115 167 179 231 174 25 -2 34 -11 60 -62z m-1581 -54 c-9 -20 -18 -41 -21 -48 -7 -18 -43 -23 -97 -11 -56 12 -66 18 -69 39 -2 8 -6 20 -11 27 -5 9 -3 20 6 29 13 13 19 11 46 -16 47 -48 112 -39 112 14 0 31 9 36 30 17 18 -14 18 -18 4 -51z m1257 -2 c-16 -43 -20 -48 -20 -26 -1 27 26 93 35 85 2 -3 -5 -29 -15 -59z m-1361 26 c0 -9 -6 -12 -15 -9 -8 4 -12 10 -9 15 8 14 24 10 24 -6z m-552 -72 c42 -46 52 -63 48 -83 -5 -30 -55 -120 -65 -120 -4 0 -17 21 -30 48 -28 59 -71 122 -83 122 -5 0 -2 -13 7 -30 8 -16 15 -36 15 -45 0 -8 4 -15 9 -15 4 0 18 -28 31 -61 l22 -62 -51 -50 c-27 -28 -53 -49 -56 -46 -12 12 -25 117 -25 198 1 150 23 201 89 201 30 0 43 -8 89 -57z m1329 -307 c32 -19 87 -43 123 -54 36 -11 97 -34 135 -52 39 -18 99 -37 135 -42 106 -17 113 -22 53 -44 -29 -10 -48 -21 -42 -25 6 -3 -12 -16 -40 -28 -52 -22 -66 -33 -31 -24 33 9 22 -12 -16 -31 -42 -19 -158 -46 -212 -47 -32 -1 -34 -2 -12 -8 14 -4 40 -3 58 1 18 5 45 8 60 6 26 -4 26 -4 -9 -15 -19 -6 -47 -22 -60 -35 -14 -14 -47 -33 -74 -42 -28 -10 -66 -27 -87 -37 -66 -35 -343 -63 -388 -39 -13 7 -31 4 -65 -11 -38 -17 -70 -21 -164 -23 -104 -1 -121 1 -160 22 -28 15 -76 27 -125 33 -45 5 -99 13 -121 18 -43 9 -39 13 34 35 35 10 28 11 -68 11 -90 0 -114 4 -159 24 -57 26 -63 44 -16 50 20 3 1 9 -61 20 -78 14 -90 19 -90 36 0 16 -12 23 -57 35 -73 19 -97 40 -48 40 34 1 33 2 -27 31 -53 25 -93 62 -81 74 3 3 131 -18 208 -34 25 -6 71 -10 104 -11 103 0 302 60 397 121 34 22 65 37 69 32 3 -4 12 -27 19 -50 26 -94 113 -169 231 -199 92 -23 263 -15 345 16 87 33 159 107 174 178 6 29 8 64 5 78 -3 13 -4 24 -1 24 3 0 32 -15 64 -34z m703 -15 c0 -5 25 -19 55 -31 53 -22 64 -40 24 -40 -18 0 -17 -3 8 -26 29 -27 27 -27 -34 -8 -46 13 -22 -15 25 -30 33 -11 65 -34 102 -71 30 -30 51 -57 48 -60 -3 -3 -27 6 -53 20 -27 14 -50 23 -53 21 -2 -3 29 -42 70 -88 111 -125 164 -225 90 -172 -49 36 -53 36 -27 -2 37 -55 33 -66 -15 -39 -56 32 -48 11 25 -67 42 -46 81 -91 87 -102 9 -17 7 -18 -18 -12 -16 4 -38 15 -48 24 -18 16 -19 16 -11 -18 28 -128 31 -208 12 -254 l-13 -29 -18 42 c-11 22 -25 46 -33 52 -16 14 -17 5 -2 -23 35 -65 48 -248 18 -248 -5 0 -9 5 -9 10 0 6 -4 10 -9 10 -5 0 -17 -24 -25 -54 -24 -82 -41 -87 -42 -13 -1 34 -9 91 -18 127 -20 73 -87 223 -105 235 -7 4 1 -20 18 -53 63 -126 87 -298 58 -422 -15 -62 -36 -107 -37 -77 0 32 -15 17 -60 -63 -49 -88 -68 -104 -43 -37 26 69 21 223 -10 327 -22 75 -71 180 -83 180 -2 0 7 -22 20 -48 48 -94 60 -157 61 -307 0 -131 -2 -144 -26 -195 -25 -52 -106 -153 -96 -119 3 9 8 38 12 65 l6 49 -38 -67 c-49 -88 -119 -167 -173 -197 l-44 -24 23 31 c31 44 13 40 -34 -8 -21 -21 -42 -37 -46 -34 -5 3 -26 -4 -48 -16 -58 -29 -69 -25 -34 13 89 94 169 270 178 391 2 34 2 52 -1 41 -2 -11 -10 -40 -16 -65 -17 -69 -130 -292 -174 -345 -40 -48 -114 -108 -122 -100 -3 3 3 14 13 25 18 20 18 21 -1 13 -10 -4 -39 -22 -63 -41 -24 -18 -60 -41 -80 -51 -80 -40 -389 -131 -445 -131 -16 0 -35 11 -50 28 -13 15 -34 38 -46 52 l-22 25 17 -28 c53 -89 -57 8 -126 111 -27 42 -53 88 -56 104 -3 16 -10 31 -15 34 -5 3 -6 -6 -2 -23 11 -51 51 -130 94 -188 37 -50 39 -56 19 -50 -64 21 -153 68 -191 102 -24 21 -51 45 -61 52 -16 13 -17 12 -8 -13 7 -18 7 -26 0 -26 -18 0 -89 63 -111 98 -11 18 -22 31 -25 29 -7 -8 27 -81 49 -104 14 -15 17 -23 8 -23 -24 0 -130 123 -159 184 -46 100 -56 151 -56 283 0 133 -11 147 -26 32 -11 -84 -5 -136 22 -228 11 -35 17 -66 14 -69 -3 -3 -29 19 -57 49 -55 58 -108 157 -108 201 0 15 -5 30 -11 34 -9 5 -10 -1 -5 -20 5 -21 3 -27 -6 -24 -7 3 -19 27 -26 54 -28 106 9 310 73 400 27 38 26 38 -15 -6 -71 -74 -94 -136 -98 -263 -3 -71 -8 -107 -15 -104 -6 2 -27 34 -46 73 -35 68 -36 71 -36 187 0 101 -2 114 -12 90 -7 -15 -15 -50 -19 -76 -5 -33 -10 -45 -17 -38 -14 14 -10 81 8 124 17 42 19 55 5 41 -5 -5 -18 -34 -28 -64 l-19 -55 -18 54 c-13 41 -16 69 -11 118 5 44 3 63 -4 58 -5 -3 -10 -12 -10 -20 0 -8 -5 -17 -11 -21 -29 -17 35 149 85 223 15 21 26 41 26 45 0 5 -23 -7 -51 -27 -67 -46 -94 -47 -53 -2 17 17 46 52 64 77 18 25 52 64 74 88 56 59 36 53 -30 -9 -47 -45 -54 -49 -54 -30 0 51 75 147 153 195 16 10 26 20 23 23 -7 7 -80 -40 -118 -75 -15 -14 -30 -23 -33 -20 -8 7 46 74 75 92 14 9 39 27 55 41 34 29 18 25 -62 -18 -57 -30 -63 -31 -63 -18 0 5 14 14 31 22 18 7 44 23 59 35 44 38 75 40 106 9 15 -15 48 -34 73 -43 25 -8 61 -26 80 -40 41 -30 137 -71 168 -72 12 0 26 -7 31 -16 6 -11 50 -25 128 -43 l119 -27 80 -104 c86 -112 143 -162 203 -181 20 -6 85 -13 143 -16 159 -8 274 21 381 95 57 39 88 91 118 194 l23 77 71 38 c39 21 76 40 81 42 6 2 27 19 48 37 20 19 43 34 51 34 7 0 31 16 52 36 22 20 62 47 89 61 67 35 170 126 202 180 23 40 43 56 43 34z m-79 -30 c-6 -10 -27 -33 -47 -51 -37 -32 -37 -32 -128 -28 -71 3 -102 9 -141 28 l-50 24 40 3 c33 2 129 15 275 37 57 8 61 7 51 -13z m-1967 -66 c32 -8 61 -16 64 -19 17 -18 -173 15 -208 35 -19 11 64 2 144 -16z m1351 -417 c-23 -110 -98 -198 -203 -240 -50 -20 -75 -22 -207 -22 -131 0 -157 3 -205 22 -67 26 -114 70 -157 147 l-33 57 33 -9 c48 -12 243 -4 290 12 30 10 45 11 54 3 31 -25 334 13 398 50 32 18 37 14 30 -20z m1147 -617 c157 -75 355 -158 438 -185 59 -19 65 -24 62 -46 -4 -32 -52 -180 -59 -180 -6 0 -145 50 -238 86 -38 14 -108 41 -155 59 -95 36 -280 122 -280 130 0 3 16 28 35 56 19 28 35 57 35 65 0 8 2 14 5 14 10 0 217 -87 350 -148 182 -82 241 -104 262 -100 21 5 26 2 -127 69 -52 22 -129 56 -170 74 -223 97 -291 125 -300 125 -5 0 -10 9 -10 20 0 11 6 20 14 20 8 0 70 -26 138 -59z m-2833 -135 c-5 -4 -148 -50 -235 -75 -90 -26 -108 -27 -95 -3 6 10 50 30 118 51 59 18 126 39 148 45 33 10 42 10 54 -1 7 -8 12 -15 10 -17z m46 -86 c16 -33 27 -61 24 -64 -7 -6 -397 -106 -415 -106 -14 0 -16 7 -10 54 8 73 14 86 40 86 25 0 263 67 286 81 32 18 47 8 75 -51z m2755 -61 l78 -41 -13 -37 c-7 -20 -16 -56 -20 -79 -8 -51 9 -77 59 -88 17 -4 41 -17 53 -30 12 -13 39 -26 60 -30 27 -4 42 -13 49 -27 5 -13 26 -28 49 -35 51 -17 81 -4 101 44 19 45 8 53 192 -156 79 -91 164 -183 187 -205 24 -22 77 -71 118 -108 41 -38 99 -99 128 -135 30 -37 108 -123 175 -192 194 -202 396 -437 430 -503 13 -25 13 -34 0 -80 -29 -98 -247 -477 -366 -636 -96 -128 -241 -332 -247 -348 -3 -7 -9 -13 -14 -13 -5 0 -50 40 -101 90 -140 137 -404 298 -570 347 -48 15 -88 31 -88 36 0 6 29 69 65 142 64 128 146 237 236 312 16 14 29 30 29 37 0 24 77 85 170 134 102 54 244 107 266 98 7 -3 16 -1 19 4 3 5 -6 12 -21 16 -38 10 -138 -24 -301 -102 -75 -35 -139 -64 -144 -64 -5 0 -13 9 -19 20 -8 16 -7 23 10 37 32 28 24 39 -42 57 -34 9 -84 28 -112 41 -69 33 -222 164 -383 327 -73 74 -133 130 -133 125 0 -25 66 -119 124 -177 37 -35 66 -72 66 -80 0 -48 -74 -291 -149 -488 -73 -191 -90 -252 -111 -394 -21 -139 -46 -199 -133 -318 -23 -30 -33 -49 -23 -41 9 8 43 49 76 93 32 43 61 74 63 70 2 -4 5 -41 6 -82 1 -41 4 -93 7 -115 l5 -40 -53 -19 c-55 -19 -113 -71 -168 -151 -38 -55 -44 -93 -25 -143 13 -31 14 -45 6 -61 -6 -11 -11 -44 -11 -74 l0 -53 -56 -18 c-114 -36 -308 -78 -317 -69 -11 10 6 231 20 261 11 25 13 48 7 85 -19 134 1 725 37 1067 16 161 69 539 78 563 5 12 12 47 15 77 4 30 14 101 23 156 l16 102 90 83 c50 46 110 110 135 144 98 133 196 369 241 581 26 119 27 124 41 124 6 0 46 -18 90 -41z m-2654 -128 c-14 -83 -18 -328 -7 -379 27 -127 146 -298 271 -387 23 -16 55 -42 72 -57 l31 -26 -24 -129 c-22 -120 -24 -152 -24 -493 0 -378 15 -657 55 -1024 11 -99 20 -197 20 -218 0 -21 7 -64 15 -96 20 -80 53 -232 49 -232 -1 0 -42 14 -91 31 -113 40 -256 112 -313 157 -25 20 -47 37 -49 38 -2 2 5 36 14 76 12 50 19 130 22 254 4 154 2 197 -15 290 -36 188 -51 340 -62 620 -11 274 -1 714 20 884 12 96 12 173 0 145 -4 -11 -16 -57 -26 -102 -9 -46 -20 -83 -24 -83 -17 0 -31 57 -20 84 21 57 13 87 -37 135 -94 91 -262 144 -352 113 -17 -6 -31 -9 -31 -6 0 9 60 95 109 157 34 42 58 62 91 74 25 9 52 22 61 30 8 7 24 13 35 13 44 0 61 26 68 103 4 40 10 77 14 83 4 5 23 17 42 26 l35 17 28 -31 c24 -26 28 -36 23 -67z m2834 44 c0 -26 -45 -125 -56 -125 -7 0 -21 8 -33 18 l-21 17 20 58 c10 32 22 62 25 67 9 14 65 -17 65 -35z m-3017 -70 c-7 -56 -10 -60 -35 -63 -28 -3 -28 -3 -28 58 0 59 1 61 33 75 39 16 40 13 30 -70z m3117 50 c15 -18 8 -69 -16 -120 -20 -43 -36 -52 -69 -37 l-23 11 31 80 c31 83 50 99 77 66z m-3232 -80 c-1 -70 -3 -76 -24 -81 -38 -10 -47 3 -42 66 4 62 19 90 49 90 15 0 17 -9 17 -75z m-116 -6 c-6 -32 -6 -62 -1 -77 14 -37 11 -42 -25 -42 -36 0 -46 12 -46 58 0 55 19 98 47 108 16 6 29 10 31 8 2 -1 -1 -26 -6 -55z m3477 42 c13 -8 13 -20 2 -78 -17 -93 -33 -116 -74 -108 -44 10 -51 19 -34 46 14 23 29 66 41 122 7 28 36 36 65 18z m-933 -148 c-6 -36 -36 -144 -42 -152 -2 -2 -106 52 -122 65 -9 6 84 80 110 87 16 4 31 14 35 22 11 31 25 14 19 -22z m-3124 -78 c-8 -59 -12 -66 -35 -59 -31 9 -30 8 -17 49 9 29 16 35 33 33 16 -2 21 -9 19 -23z m1247 -2 c35 -26 51 -42 51 -53 0 -3 -16 -18 -35 -33 l-35 -28 -9 23 c-10 28 -20 118 -13 118 3 0 21 -12 41 -27z m1729 -57 c91 -47 89 -44 52 -114 -40 -75 -131 -187 -173 -213 -80 -48 -358 -126 -539 -150 -77 -11 -313 -7 -325 4 -10 10 68 157 91 172 13 9 79 31 147 50 68 19 176 57 239 86 63 28 173 73 245 100 71 28 143 59 160 69 39 25 46 25 103 -4z m-2994 -38 c-15 -7 -28 -7 -40 1 -16 9 -12 10 21 10 35 0 37 -2 19 -11z m1392 -29 c48 -50 87 -69 153 -74 45 -3 70 -11 94 -29 43 -33 143 -77 235 -105 83 -25 85 -28 49 -126 -26 -71 -24 -70 -177 -28 -202 55 -360 153 -448 278 -11 16 -33 67 -30 70 13 12 75 45 84 45 5 0 23 -14 40 -31z m-1610 -49 c167 -86 340 -284 320 -366 -12 -45 -62 -84 -108 -84 -36 0 -47 7 -123 80 -115 110 -245 170 -371 170 -45 0 -52 3 -62 25 -18 40 -14 106 8 143 13 21 40 42 73 58 80 38 151 31 263 -26z m874 -100 c0 -13 -20 -13 -40 0 -12 8 -9 10 13 10 15 0 27 -4 27 -10z m20 -55 c0 -10 -34 -75 -39 -75 -37 1 -17 80 19 80 11 0 20 -2 20 -5z m1328 -112 c-21 -43 -39 -82 -41 -87 -2 -5 -8 -6 -15 -3 -23 15 51 167 81 167 8 0 0 -27 -25 -77z m-1650 12 c-2 -10 -8 -12 -17 -6 -12 8 -12 11 0 24 15 16 23 8 17 -18z m-799 10 c77 -19 194 -68 239 -102 18 -14 51 -47 72 -75 34 -43 40 -57 40 -99 0 -79 -55 -114 -111 -70 -43 33 -82 48 -192 76 -88 22 -126 26 -200 23 l-91 -3 -23 34 c-29 43 -29 55 2 117 32 64 61 91 110 103 58 13 82 12 154 -4z m3485 -167 c-8 -35 -14 -73 -14 -85 0 -27 -16 -30 -24 -5 -6 17 -67 62 -86 62 -25 0 -5 18 58 51 37 20 70 37 73 38 3 0 0 -27 -7 -61z m-2799 -78 c11 -13 36 -30 55 -38 19 -8 29 -17 22 -19 -23 -8 -152 76 -152 99 0 13 52 -17 75 -42z m1218 31 l29 -18 -25 -7 c-14 -3 -40 -18 -57 -33 l-32 -27 7 45 c4 24 9 47 12 52 7 13 37 8 66 -12z m1497 -36 c99 -95 -17 -274 -144 -221 -43 18 -66 60 -66 121 0 53 12 81 49 113 38 33 120 27 161 -13z m-2785 -11 l30 -25 -43 19 c-51 23 -62 32 -36 32 10 -1 33 -12 49 -26z m-85 -46 c0 -24 -12 -23 -38 5 -17 18 -19 26 -10 35 15 15 48 -12 48 -40z m2633 13 c-31 -80 10 -179 87 -211 42 -17 113 -5 150 26 20 18 30 21 30 12 0 -8 -11 -93 -25 -189 -14 -96 -28 -194 -31 -218 l-6 -44 -17 29 c-26 41 -51 61 -94 72 -95 26 -187 -48 -187 -151 0 -57 18 -95 60 -131 51 -42 157 -33 199 18 19 23 29 20 25 -6 -2 -13 -8 -102 -15 -200 l-12 -176 -33 33 c-61 62 -149 60 -208 -5 -58 -65 -60 -151 -5 -215 44 -49 95 -63 154 -41 24 10 54 30 66 44 l22 27 -7 -85 c-3 -47 -6 -124 -6 -172 l0 -88 -32 20 c-22 13 -51 20 -85 20 -47 0 -58 -4 -92 -36 -36 -32 -43 -46 -55 -109 -6 -31 19 -94 49 -125 39 -41 111 -50 165 -21 23 12 42 21 43 21 1 0 0 -51 -3 -112 l-5 -113 -60 -8 c-329 -41 -1234 -7 -1290 49 -11 12 -55 175 -55 207 0 6 13 -1 28 -16 37 -36 113 -38 163 -4 46 30 81 100 73 147 -10 58 -47 106 -98 125 -59 23 -106 14 -155 -30 l-37 -34 -18 167 c-9 92 -20 181 -22 197 l-5 30 20 -33 c65 -102 210 -101 269 3 57 99 -9 221 -125 232 -61 6 -108 -23 -140 -85 l-22 -44 -5 34 c-24 148 -40 894 -22 992 l7 39 18 -29 c31 -50 58 -67 114 -71 45 -4 59 0 99 26 62 40 82 79 75 149 -3 29 -11 60 -18 68 -6 8 -10 17 -7 19 3 3 50 -6 104 -19 166 -42 223 -49 369 -49 162 1 302 20 483 67 70 18 130 34 134 35 3 0 -1 -17 -9 -38z m-1127 -5 c33 -33 39 -52 34 -106 -6 -66 -61 -113 -133 -113 -30 0 -46 8 -73 34 -29 29 -34 39 -34 81 0 91 42 138 123 138 42 0 54 -5 83 -34z m-2046 8 c140 -26 237 -72 267 -127 21 -38 16 -85 -13 -112 -33 -30 -53 -31 -104 -5 -58 29 -212 29 -282 -2 -49 -21 -51 -21 -84 -3 -58 31 -69 50 -69 119 1 76 21 109 78 130 55 19 107 19 207 0z m760 -52 c-8 -3 -80 37 -80 44 0 2 20 -6 44 -18 24 -13 40 -24 36 -26z m605 -255 l0 -303 -75 -103 c-41 -57 -97 -136 -125 -176 -156 -225 -323 -379 -444 -407 -41 -9 -58 -8 -102 6 -62 20 -195 97 -289 169 -71 54 -86 74 -49 61 41 -13 171 -7 239 11 103 27 212 89 298 170 75 71 78 72 132 74 30 0 70 5 88 10 l32 10 1 -52 c1 -47 2 -49 10 -22 5 17 7 39 4 51 -3 14 4 28 20 42 17 15 37 62 71 169 36 117 188 593 189 593 0 0 0 -136 0 -303z m-339 263 c66 -23 124 -59 124 -77 0 -18 -7 -16 -41 8 -50 35 -139 61 -232 67 -77 4 -85 6 -70 19 24 19 144 10 219 -17z m169 -90 c16 -18 16 -20 1 -26 -21 -8 -47 13 -39 32 7 19 17 18 38 -6z m55 -82 c0 -16 -3 -19 -11 -11 -6 6 -8 16 -5 22 11 17 16 13 16 -11z m-596 -53 c-9 -33 -26 -75 -31 -75 -2 0 -17 10 -32 21 -26 19 -28 25 -20 49 9 24 15 27 49 26 35 -1 39 -3 34 -21z m-549 4 c55 -15 105 -55 105 -83 0 -58 -70 -98 -199 -111 -50 -6 -69 -13 -87 -32 -22 -23 -26 -24 -54 -13 -73 30 -111 115 -75 167 45 64 205 101 310 72z m4215 -30 c91 -80 171 -141 224 -171 33 -18 64 -42 70 -53 6 -11 21 -37 34 -58 l23 -39 -38 -48 c-203 -261 -275 -361 -292 -411 -14 -39 -25 -55 -40 -57 -22 -4 -76 -87 -167 -260 -52 -98 -79 -132 -105 -132 -24 0 -27 14 -35 167 -11 239 10 338 170 778 42 115 83 233 91 262 9 29 19 53 23 53 4 0 23 -14 42 -31z m-3753 -145 c-4 -40 -2 -64 4 -64 6 0 6 -7 -1 -19 -17 -32 -12 -86 11 -115 l21 -26 -35 -15 c-19 -8 -55 -17 -79 -21 -41 -7 -42 -6 -27 12 15 17 69 215 84 309 11 66 29 15 22 -61z m2746 -142 c87 -82 33 -222 -85 -222 -41 0 -50 5 -82 40 -31 35 -36 46 -36 91 0 47 4 55 40 91 39 39 42 40 87 33 31 -4 58 -16 76 -33z m-3308 -155 c67 -44 130 -60 262 -65 147 -5 240 10 346 56 57 25 59 25 89 8 16 -10 53 -26 81 -36 28 -10 53 -23 55 -28 5 -17 -128 -121 -203 -158 -177 -87 -378 -80 -531 21 -39 26 -58 47 -86 101 -56 108 -59 132 -13 101z m3273 -409 c21 -17 42 -71 42 -106 0 -32 -39 -90 -73 -109 -12 -7 -39 -12 -59 -13 -30 0 -45 7 -73 35 -30 30 -35 42 -35 81 0 73 39 126 101 136 30 5 76 -7 97 -24z m-1211 -10 c48 -49 47 -142 -3 -189 -20 -19 -36 -24 -77 -24 -65 0 -103 25 -117 78 -15 51 -6 85 32 131 30 37 33 38 85 34 41 -4 61 -11 80 -30z m2423 -69 c132 -50 358 -193 476 -301 38 -34 93 -83 123 -107 29 -25 80 -76 113 -114 l59 -69 -63 -67 c-35 -37 -106 -122 -158 -189 -52 -67 -101 -122 -109 -122 -8 0 -32 15 -55 34 -23 18 -180 137 -350 265 -170 128 -337 255 -372 284 l-63 52 21 35 c12 19 55 94 96 165 111 195 95 177 155 169 29 -4 86 -19 127 -35z m-430 -381 c0 -3 16 -16 36 -28 21 -11 69 -47 108 -79 39 -32 110 -85 158 -117 48 -33 146 -106 219 -164 l132 -104 -5 -87 c-5 -78 -9 -94 -48 -165 -103 -189 -137 -264 -159 -356 -35 -148 -62 -178 -149 -165 -43 7 -102 64 -102 99 0 38 62 177 98 219 24 27 31 44 25 50 -24 24 -66 -26 -138 -161 -46 -86 -73 -105 -125 -90 -60 17 -120 90 -120 146 0 52 85 193 145 241 33 26 47 63 25 63 -33 0 -118 -75 -175 -155 -54 -77 -68 -80 -126 -28 -71 64 -86 121 -50 198 24 54 132 186 175 216 28 19 33 27 25 41 -5 10 -13 18 -18 18 -4 0 -40 -27 -79 -60 l-72 -60 -38 38 c-43 43 -68 113 -58 162 3 17 21 54 39 83 33 51 39 55 158 106 130 55 156 72 144 90 -9 15 -24 10 -165 -51 -68 -29 -126 -61 -142 -79 -15 -16 -30 -29 -33 -29 -16 0 0 53 31 100 68 102 99 125 194 146 51 11 56 10 72 -10 10 -11 18 -24 18 -28z m-1990 -53 c37 -19 60 -63 60 -114 0 -33 -7 -47 -38 -81 -47 -49 -87 -53 -143 -14 -69 47 -76 123 -17 189 25 29 37 35 70 35 21 0 52 -7 68 -15z m1191 -10 c36 -19 69 -70 69 -106 0 -66 -35 -110 -102 -129 -59 -17 -148 49 -148 111 0 104 94 168 181 124z m-1606 -354 c282 -134 540 -180 1035 -182 229 -1 341 3 450 15 153 18 386 63 508 98 l72 21 34 -39 c19 -21 32 -42 30 -45 -2 -3 -29 -14 -61 -23 -32 -10 -68 -21 -80 -26 -58 -24 -264 -72 -404 -94 -310 -51 -690 -71 -862 -46 -93 14 -398 91 -531 134 -117 39 -282 120 -340 168 -33 27 -36 34 -36 84 l0 54 53 -41 c28 -22 88 -57 132 -78z m3430 -1411 l30 -31 -20 -33 c-26 -44 -97 -138 -101 -134 -5 5 50 228 56 228 4 0 19 -14 35 -30z"/>
<path d="M4833 8943 c-31 -4 -33 -6 -33 -46 1 -81 67 -174 155 -220 99 -50 231 -11 312 93 36 47 44 65 49 118 l7 62 -112 0 -111 0 0 -68 c0 -77 17 -112 55 -112 15 0 32 11 45 30 21 30 53 39 65 20 4 -6 -11 -27 -32 -47 -21 -20 -29 -31 -18 -23 16 11 18 11 8 0 -17 -18 -69 -25 -196 -25 l-109 0 -35 39 c-34 37 -35 40 -18 53 27 19 40 16 53 -11 14 -32 47 -42 76 -23 19 13 24 28 30 82 4 36 4 70 1 75 -6 10 -125 11 -192 3z"/>
<path d="M4870 8333 c-105 -17 -508 -148 -496 -160 3 -3 25 2 50 10 26 9 46 13 46 9 0 -4 4 -2 8 4 13 21 325 114 418 125 110 14 396 6 514 -15 47 -8 101 -17 120 -20 34 -6 34 -6 -5 8 -85 28 -260 46 -447 45 -101 -1 -194 -4 -208 -6z"/>
<path d="M5585 8270 c27 -12 43 -12 25 0 -8 5 -22 9 -30 9 -10 0 -8 -3 5 -9z"/>
<path d="M5710 8219 c103 -49 130 -60 130 -53 0 8 -187 94 -202 93 -7 0 25 -18 72 -40z"/>
<path d="M4275 8130 c-48 -22 -44 -24 14 -6 24 7 40 15 35 19 -5 3 -28 -3 -49 -13z"/>
<path d="M5375 8137 c-52 -17 -163 -79 -169 -94 -7 -18 29 -188 40 -188 5 1 36 7 69 14 83 19 178 10 240 -21 49 -25 138 -110 184 -175 38 -56 51 -44 51 47 0 161 -65 297 -180 375 -60 42 -75 48 -131 51 -37 2 -81 -2 -104 -9z"/>
<path d="M4470 8073 c-69 -25 -149 -112 -184 -199 -26 -65 -28 -80 -24 -177 4 -128 15 -146 51 -85 45 76 108 148 155 176 43 25 56 27 147 27 76 0 108 -4 134 -18 19 -9 36 -16 37 -14 2 2 11 41 20 88 16 83 16 84 -6 99 -12 8 -38 29 -58 46 -21 17 -53 39 -72 49 -48 25 -144 29 -200 8z"/>
<path d="M5274 7626 c-21 -19 -37 -36 -34 -39 3 -3 25 13 49 34 24 21 39 39 34 39 -5 0 -27 -15 -49 -34z"/>
<path d="M4765 7598 c22 -24 41 -45 43 -47 1 -2 2 1 2 7 0 15 -59 82 -73 82 -6 0 7 -19 28 -42z"/>
<path d="M5395 7550 c-46 -9 -147 -68 -139 -81 2 -5 -2 -22 -11 -39 -36 -69 -38 -180 -6 -264 18 -46 21 -26 5 34 -21 82 -18 129 14 190 36 72 87 111 151 118 69 6 95 -2 145 -49 57 -52 87 -123 88 -204 0 -35 -3 -68 -6 -74 -7 -11 -106 -16 -106 -5 0 3 5 15 11 26 6 11 11 45 10 74 -1 134 -111 223 -201 162 -79 -54 -104 -168 -56 -262 l24 -47 -24 -11 c-24 -11 -29 -20 -19 -30 4 -3 38 6 78 20 98 34 271 36 361 4 69 -26 62 -4 -10 27 l-43 19 29 54 c31 55 41 103 18 80 -22 -22 -35 -13 -42 29 -8 53 -38 110 -82 158 -54 61 -118 84 -189 71z m3 -159 c24 -15 10 -56 -19 -59 -34 -4 -54 20 -39 47 11 22 35 27 58 12z m-58 -127 c0 -18 40 -44 66 -44 17 0 25 9 34 35 11 32 33 46 43 28 3 -5 8 -29 11 -55 l7 -47 -41 -11 c-70 -19 -111 -10 -138 30 -16 24 -21 43 -17 60 3 14 6 31 7 39 2 17 28 -16 28 -35z"/>
<path d="M4891 7514 c0 -11 3 -14 6 -6 3 7 2 16 -1 19 -3 4 -6 -2 -5 -13z"/>
<path d="M5620 7105 c0 -2 24 -17 53 -34 l52 -32 -34 30 c-28 25 -71 47 -71 36z"/>
<path d="M5212 7068 c15 -13 42 -34 60 -47 l33 -25 -24 27 c-14 15 -41 36 -60 47 l-36 21 27 -23z"/>
<path d="M4364 7061 c-52 -31 -49 -42 3 -14 59 32 60 33 42 33 -8 0 -28 -9 -45 -19z"/>
<path d="M4415 7045 c-16 -13 -25 -24 -19 -25 6 0 21 11 34 25 30 32 24 32 -15 0z"/>
<path d="M5617 7059 c7 -7 15 -10 18 -7 3 3 -2 9 -12 12 -14 6 -15 5 -6 -5z"/>
<path d="M5691 6649 c8 -5 34 -8 59 -8 53 1 44 6 -24 12 -30 3 -43 1 -35 -4z"/>
<path d="M4697 6364 c-3 -3 -30 -10 -59 -14 -49 -7 -50 -8 -13 -8 35 -1 119 25 89 27 -6 1 -13 -2 -17 -5z"/>
<path d="M6340 6212 c0 -5 7 -15 15 -22 8 -7 15 -8 15 -2 0 5 -7 15 -15 22 -8 7 -15 8 -15 2z"/>
<path d="M4480 6024 c-49 -28 -100 -72 -100 -87 0 -5 21 9 46 32 25 24 64 51 87 62 23 10 35 19 27 19 -8 0 -35 -12 -60 -26z"/>
<path d="M4599 5963 c-38 -35 -89 -103 -89 -119 0 -4 14 13 31 37 17 24 49 61 72 81 23 21 39 38 35 38 -5 0 -27 -17 -49 -37z"/>
<path d="M5429 5940 c30 -29 63 -74 73 -98 23 -52 35 -51 13 1 -18 42 -64 98 -109 129 -19 14 -10 2 23 -32z"/>
<path d="M5338 5928 c16 -24 39 -69 53 -101 13 -32 25 -54 27 -49 7 22 -82 192 -101 192 -4 0 5 -19 21 -42z"/>
<path d="M4963 5813 c-42 -97 -73 -201 -78 -259 -4 -55 -3 -53 15 28 10 47 35 128 54 179 37 99 43 132 9 52z"/>
<path d="M4722 5713 c-11 -21 -23 -57 -27 -78 -5 -33 -2 -30 15 20 12 33 27 66 32 73 6 7 8 15 5 18 -3 3 -15 -12 -25 -33z"/>
<path d="M4409 5265 c-7 -72 6 -204 22 -219 8 -8 9 -5 3 14 -4 14 -10 79 -13 145 -6 106 -7 113 -12 60z"/>
<path d="M4845 5238 c-12 -69 -9 -249 5 -298 19 -66 24 -26 11 87 -6 52 -8 130 -5 174 7 85 0 106 -11 37z"/>
<path d="M5125 5093 c-25 -85 -70 -175 -125 -248 -50 -66 -55 -88 -8 -37 67 72 119 173 143 276 18 78 12 84 -10 9z"/>
<path d="M4900 6150 c-22 -5 13 -8 98 -9 82 -1 132 3 132 9 0 11 -175 11 -230 0z"/>
<path d="M6576 4929 c-47 -154 -89 -399 -69 -399 6 0 18 55 28 123 10 67 30 174 46 237 15 63 26 117 24 118 -2 2 -15 -34 -29 -79z"/>
<path d="M7529 3859 c-31 -4 -71 -14 -89 -21 -28 -12 -4 -13 176 -10 115 2 213 8 218 12 4 5 5 13 2 19 -8 13 -221 13 -307 0z"/>
<path d="M2941 4314 c0 -11 3 -14 6 -6 3 7 2 16 -1 19 -3 4 -6 -2 -5 -13z"/>
<path d="M4360 3803 c-86 -31 -120 -77 -120 -161 0 -39 6 -58 30 -91 35 -48 62 -61 128 -61 122 0 191 141 120 246 -35 52 -111 84 -158 67z m93 -41 c42 -28 56 -53 57 -100 0 -62 -26 -111 -69 -129 -110 -46 -209 68 -155 180 30 62 110 86 167 49z"/>
<path d="M4288 4164 c5 -29 8 -30 15 -5 3 11 -1 22 -8 24 -8 4 -10 -3 -7 -19z"/>
<path d="M5582 3560 c14 -22 38 -35 38 -20 0 5 -5 12 -10 15 -6 4 -8 11 -5 16 4 5 -3 9 -14 9 -19 0 -20 -2 -9 -20z"/>
<path d="M5600 2969 c0 -5 11 -8 25 -7 14 1 25 5 25 9 0 4 -11 7 -25 7 -14 0 -25 -4 -25 -9z"/>
<path d="M4343 2541 c0 -11 5 -18 9 -15 4 3 5 11 1 19 -7 21 -12 19 -10 -4z"/>
<path d="M4484 1661 c11 -18 144 -105 211 -138 64 -32 191 -78 315 -114 41 -12 90 -26 108 -31 39 -12 39 -11 7 -175 -23 -113 -52 -238 -166 -708 -16 -69 -44 -150 -65 -190 -19 -38 -26 -59 -15 -45 23 28 49 85 85 180 23 61 25 63 26 30 4 -92 -4 -165 -30 -275 -16 -66 -31 -137 -35 -157 -6 -38 -6 -38 27 -38 l34 0 32 197 c17 109 35 243 38 298 5 85 8 97 19 81 18 -24 49 -17 53 12 l4 23 204 -3 204 -3 26 -80 c30 -89 58 -151 83 -179 12 -14 16 -39 16 -105 1 -80 4 -92 40 -163 32 -63 44 -78 62 -78 13 0 23 4 23 9 0 5 -14 48 -30 95 -17 47 -35 121 -41 166 -8 54 -25 111 -55 181 -24 56 -44 105 -44 110 0 5 44 -39 98 -98 94 -103 216 -213 236 -213 8 0 -86 102 -188 204 -88 88 -200 225 -225 274 -54 108 -159 357 -197 467 -62 177 -110 212 -424 304 -200 59 -257 80 -355 130 -90 46 -89 46 -81 32z m779 -421 c86 -171 226 -478 237 -520 6 -25 14 -54 17 -64 5 -18 -2 -19 -205 -12 -147 6 -212 4 -216 -3 -4 -6 -12 -11 -18 -11 -17 0 -3 108 32 244 16 65 39 169 50 230 37 201 41 217 53 214 7 -2 29 -37 50 -78z"/>
<path d="M4761 1395 c5 -5 72 -11 147 -13 75 -2 133 0 129 5 -5 4 -71 10 -147 13 -93 3 -136 2 -129 -5z"/>
<path d="M5471 1225 c95 -96 174 -175 176 -175 11 0 -51 68 -185 203 -80 81 -150 147 -155 147 -4 0 69 -79 164 -175z"/>
<path d="M7800 919 c0 -5 5 -7 10 -4 6 3 10 8 10 11 0 2 -4 4 -10 4 -5 0 -10 -5 -10 -11z"/>
<path d="M6934 709 c-8 -14 12 -34 64 -61 23 -13 95 -55 160 -94 64 -40 155 -93 202 -119 98 -55 120 -72 120 -94 0 -43 184 -321 212 -321 17 0 7 38 -17 60 -29 28 -80 99 -74 105 7 6 20 -5 69 -60 61 -68 135 -125 162 -125 18 0 -2 24 -97 118 -158 153 -205 206 -205 226 0 35 -22 57 -93 92 -153 78 -384 214 -440 261 -31 25 -52 29 -63 12z"/>
<path d="M7236 412 c-2 -4 -2 -12 2 -18 13 -18 177 -137 191 -138 29 -2 21 24 -16 47 -21 14 -62 46 -91 71 -52 44 -75 55 -86 38z"/>
<path d="M3511 311 c-36 -10 -37 -28 -2 -36 39 -8 77 11 60 31 -12 15 -20 16 -58 5z"/>
<path d="M2095 70 c-33 -22 -69 -46 -80 -54 -20 -15 -20 -15 3 -16 28 0 171 81 172 98 0 21 -33 12 -95 -28z"/>
</g>
</svg>