<!-- icon666.com - MILLIONS vector ICONS FREE --><svg viewBox="0 0 512 512" xmlns="http://www.w3.org/2000/svg" xmlns:xlink="http://www.w3.org/1999/xlink"><linearGradient id="a" gradientTransform="matrix(1 0 0 -1 0 -18718)" gradientUnits="userSpaceOnUse" x1="0" x2="512" y1="-18974" y2="-18974"><stop offset="0" stop-color="#00f38d"></stop><stop offset="1" stop-color="#009eff"></stop></linearGradient><path d="m512 256c0 141.386719-114.613281 256-256 256s-256-114.613281-256-256 114.613281-256 256-256 256 114.613281 256 256zm0 0" fill="url(#a)"></path><g fill="#fff"><path d="m392.082031 222.816406 31.1875-53.820312v-10.480469c0-.367187.007813-.816406.015625-1.335937.136719-8.511719.558594-34.410157-16.511718-51.757813-10.0625-10.230469-23.878907-15.417969-41.054688-15.417969h-219.15625c-17.179688 0-30.992188 5.1875-41.058594 15.417969-17.066406 17.347656-16.648437 43.246094-16.511718 51.757813.011718.519531.019531.96875.019531 1.335937v10.480469l31.1875 53.820312h-31.1875v191.179688h334.304687v-191.179688zm-245.519531-102.8125h219.15625c8.960938 0 15.394531 2.113282 19.671875 6.460938 4.375 4.441406 6.355469 10.988281 7.242187 17.050781h-272.984374c.882812-6.0625 2.867187-12.609375 7.238281-17.050781 4.277343-4.347656 10.714843-6.460938 19.675781-6.460938zm-20.257812 53.511719h259.671874l-28.566406 49.300781h-202.539062zm106.175781 79.300781h47.367187v47.363282h-47.367187zm-30 0v77.363282h107.367187v-77.363282h83.46875v80.300782c-27.710937 1.074218-50.105468 23.246093-51.507812 50.878906h-171.289063c-1.402343-27.632813-23.796875-49.804688-51.507812-50.878906v-80.300782zm-83.46875 110.34375c11.164062.988282 20.125 9.757813 21.410156 20.835938h-21.410156zm252.894531 20.835938c1.285156-11.078125 10.246094-19.847656 21.410156-20.835938v20.835938zm0 0"></path><path d="m269.058594 276.5c0 7.121094-5.773438 12.894531-12.894532 12.894531-7.121093 0-12.894531-5.773437-12.894531-12.894531s5.773438-12.894531 12.894531-12.894531c7.121094 0 12.894532 5.773437 12.894532 12.894531zm0 0"></path></g></svg>