<svg width="90" height="90" viewBox="0 0 90 90" fill="none" xmlns="http://www.w3.org/2000/svg">
<g clip-path="url(#clip0_42_48)">
<path d="M76.8198 76.8198C59.246 94.3936 30.754 94.3936 13.1802 76.8198C-4.39362 59.2459 -4.39362 30.754 13.1802 13.1802C30.754 -4.39366 59.246 -4.39366 76.8198 13.1802C94.3936 30.754 94.3936 59.2459 76.8198 76.8198Z" fill="url(#paint0_linear_42_48)"/>
<path d="M68.9207 39.167L74.4029 29.7064V27.8641C74.4029 27.7996 74.4042 27.7206 74.4056 27.6293C74.4296 26.1331 74.5038 21.5806 71.5031 18.5312C69.7343 16.7329 67.3057 15.821 64.2865 15.821H25.7629C22.7431 15.821 20.3151 16.7329 18.5456 18.5312C15.5457 21.5806 15.6191 26.1331 15.6432 27.6293C15.6452 27.7206 15.6466 27.7996 15.6466 27.8641V29.7064L21.1288 39.167H15.6466V72.7728H74.4111V39.167H68.9207ZM25.7629 21.0945H64.2865C65.8617 21.0945 66.9926 21.466 67.7444 22.2302C68.5135 23.0109 68.8616 24.1617 69.0175 25.2274H21.032C21.1871 24.1617 21.536 23.0109 22.3043 22.2302C23.0562 21.466 24.1878 21.0945 25.7629 21.0945ZM22.202 30.5008H67.8474L62.826 39.167H27.2234L22.202 30.5008ZM40.8657 44.4404H49.192V52.766H40.8657V44.4404ZM35.5923 44.4404V58.0394H54.4654V44.4404H69.1377V58.5558C64.2666 58.7446 60.3301 62.642 60.0835 67.4994H29.9741C29.7276 62.642 25.7911 58.7446 20.92 58.5558V44.4404H35.5923ZM20.92 63.8368C22.8825 64.0105 24.4576 65.552 24.6835 67.4994H20.92V63.8368ZM65.3741 67.4994C65.6001 65.552 67.1752 64.0105 69.1377 63.8368V67.4994H65.3741Z" fill="white"/>
<path d="M47.2954 48.6035C47.2954 49.8553 46.2806 50.8701 45.0288 50.8701C43.7771 50.8701 42.7622 49.8553 42.7622 48.6035C42.7622 47.3518 43.7771 46.3369 45.0288 46.3369C46.2806 46.3369 47.2954 47.3518 47.2954 48.6035Z" fill="white"/>
</g>
<defs>
<linearGradient id="paint0_linear_42_48" x1="13.1802" y1="13.1802" x2="76.8198" y2="76.8198" gradientUnits="userSpaceOnUse">
<stop stop-color="#00F38D"/>
<stop offset="0.7" stop-color="#5F7666"/>
</linearGradient>
<clipPath id="clip0_42_48">
<rect width="90" height="90" fill="white"/>
</clipPath>
</defs>
</svg>
