<!-- icon666.com - MILLIONS vector ICONS FREE --><svg viewBox="0 0 512 512" xmlns="http://www.w3.org/2000/svg" xmlns:xlink="http://www.w3.org/1999/xlink"><linearGradient id="a" gradientTransform="matrix(1 0 0 -1 0 -14446)" gradientUnits="userSpaceOnUse" x1="0" x2="512" y1="-14702" y2="-14702"><stop offset="0" stop-color="#00f38d"></stop><stop offset="1" stop-color="#009eff"></stop></linearGradient><path d="m512 256c0 141.386719-114.613281 256-256 256s-256-114.613281-256-256 114.613281-256 256-256 256 114.613281 256 256zm0 0" fill="url(#a)"></path><g fill="#fff"><path d="m424.722656 357.722656-27.023437-137.09375c-2.109375-10.707031-8.265625-19.949218-17.328125-26.027344-9.058594-6.074218-19.945313-8.257812-30.648438-6.148437l-37.953125 7.480469v-56.585938c0-22.523437-18.324219-40.847656-40.847656-40.847656h-139.574219c-22.523437 0-40.847656 18.324219-40.847656 40.847656v139.578125c0 22.523438 18.324219 40.847657 40.847656 40.847657h60.207032l15.921874 80.777343c2.109376 10.703125 8.261719 19.945313 17.324219 26.023438 6.808594 4.566406 14.648438 6.933593 22.667969 6.933593 2.652344 0 5.324219-.257812 7.984375-.785156l137.097656-27.023437c10.703125-2.109375 19.945313-8.265625 26.023438-17.324219 6.074219-9.0625 8.261719-19.949219 6.148437-30.652344zm-304.222656-78.796875v-139.578125c0-5.980468 4.867188-10.847656 10.847656-10.847656h139.578125c5.980469 0 10.847657 4.867188 10.847657 10.847656v139.578125c0 5.980469-4.867188 10.847657-10.847657 10.847657h-139.578125c-5.980468 0-10.847656-4.867188-10.847656-10.847657zm273.15625 92.738281c-1.613281 2.40625-4.066406 4.039063-6.910156 4.601563l-137.097656 27.023437c-2.839844.566407-5.730469-.019531-8.136719-1.632812-2.410157-1.609375-4.042969-4.066406-4.601563-6.910156l-14.78125-74.972656h48.792969c22.523437 0 40.847656-18.324219 40.847656-40.847657v-52.414062l43.753907-8.625c5.867187-1.15625 11.582031 2.675781 12.742187 8.542969l27.023437 137.09375c.5625 2.84375-.019531 5.734374-1.632812 8.140624zm0 0"></path><path d="m350.40625 258.246094c0 7.136718-5.789062 12.925781-12.925781 12.925781s-12.921875-5.789063-12.921875-12.925781c0-7.136719 5.785156-12.925782 12.921875-12.925782s12.925781 5.789063 12.925781 12.925782zm0 0"></path><path d="m366.558594 344.835938c0 7.136718-5.785156 12.921874-12.921875 12.921874s-12.925781-5.785156-12.925781-12.921874c0-7.136719 5.789062-12.925782 12.925781-12.925782s12.921875 5.789063 12.921875 12.925782zm0 0"></path><path d="m280.617188 362.28125c0 7.136719-5.785157 12.925781-12.925782 12.925781-7.136718 0-12.921875-5.789062-12.921875-12.925781s5.785157-12.921875 12.921875-12.921875c7.140625 0 12.925782 5.785156 12.925782 12.921875zm0 0"></path><path d="m170.117188 165.195312c0 7.136719-5.785157 12.921876-12.921876 12.921876-7.136718 0-12.925781-5.785157-12.925781-12.921876 0-7.136718 5.789063-12.925781 12.925781-12.925781 7.136719 0 12.921876 5.789063 12.921876 12.925781zm0 0"></path><path d="m170.117188 253.078125c0 7.136719-5.785157 12.921875-12.921876 12.921875-7.136718 0-12.925781-5.785156-12.925781-12.921875 0-7.140625 5.789063-12.925781 12.925781-12.925781 7.136719 0 12.921876 5.785156 12.921876 12.925781zm0 0"></path><path d="m170.117188 209.136719c0 7.136719-5.785157 12.921875-12.921876 12.921875-7.136718 0-12.925781-5.785156-12.925781-12.921875s5.789063-12.925781 12.925781-12.925781c7.136719 0 12.921876 5.789062 12.921876 12.925781zm0 0"></path><path d="m258 165.195312c0 7.136719-5.785156 12.921876-12.925781 12.921876-7.136719 0-12.921875-5.785157-12.921875-12.921876 0-7.136718 5.785156-12.925781 12.921875-12.925781 7.140625 0 12.925781 5.789063 12.925781 12.925781zm0 0"></path><path d="m258 253.078125c0 7.136719-5.785156 12.921875-12.925781 12.921875-7.136719 0-12.921875-5.785156-12.921875-12.921875 0-7.140625 5.785156-12.925781 12.921875-12.925781 7.140625 0 12.925781 5.785156 12.925781 12.925781zm0 0"></path><path d="m258 209.136719c0 7.136719-5.785156 12.921875-12.925781 12.921875-7.136719 0-12.921875-5.785156-12.921875-12.921875s5.785156-12.925781 12.921875-12.925781c7.140625 0 12.925781 5.789062 12.925781 12.925781zm0 0"></path></g></svg>