<svg width="90" height="90" viewBox="0 0 90 90" fill="none" xmlns="http://www.w3.org/2000/svg">
<g clip-path="url(#clip0_42_17)">
<path d="M76.8198 76.8198C59.246 94.3936 30.754 94.3936 13.1802 76.8198C-4.39362 59.2459 -4.39362 30.754 13.1802 13.1802C30.754 -4.39366 59.246 -4.39366 76.8198 13.1802C94.3936 30.754 94.3936 59.2459 76.8198 76.8198Z" fill="url(#paint0_linear_42_17)"/>
<path d="M74.6583 62.8809L69.9081 38.7824C69.5373 36.9003 68.4551 35.2757 66.8621 34.2073C65.2698 33.1396 63.3561 32.7557 61.4747 33.1265L54.8032 34.4415V24.4947C54.8032 20.5355 51.5822 17.3145 47.623 17.3145H23.0885C19.1293 17.3145 15.9082 20.5355 15.9082 24.4947V49.0299C15.9082 52.9891 19.1293 56.2102 23.0885 56.2102H33.6717L36.4705 70.4093C36.8413 72.2907 37.9227 73.9153 39.5158 74.9837C40.7126 75.7864 42.0907 76.2025 43.5004 76.2025C43.9666 76.2025 44.4363 76.1572 44.9039 76.0645L69.0031 71.3143C70.8845 70.9435 72.5091 69.8614 73.5775 68.269C74.6452 66.676 75.0298 64.7623 74.6583 62.8809ZM21.1816 49.0299V24.4947C21.1816 23.4435 22.0372 22.5879 23.0885 22.5879H47.6237C48.6749 22.5879 49.5305 23.4435 49.5305 24.4947V49.0299C49.5305 50.0812 48.6749 50.9367 47.6237 50.9367H23.0885C22.0372 50.9367 21.1816 50.0812 21.1816 49.0299ZM69.1974 65.3316C68.9138 65.7545 68.4826 66.0416 67.9827 66.1404L43.8835 70.8907C43.3843 70.9902 42.8762 70.8872 42.4532 70.6036C42.0296 70.3207 41.7426 69.8888 41.6444 69.389L39.0461 56.2102H47.623C51.5822 56.2102 54.8032 52.9891 54.8032 49.0299V39.8165L62.4944 38.3004C63.5257 38.0972 64.5303 38.7708 64.7342 39.8021L69.4844 63.9006C69.5833 64.4005 69.481 64.9086 69.1974 65.3316Z" fill="white"/>
<path d="M61.5948 45.3948C61.5948 46.6493 60.5772 47.6669 59.3227 47.6669C58.0682 47.6669 57.0513 46.6493 57.0513 45.3948C57.0513 44.1403 58.0682 43.1227 59.3227 43.1227C60.5772 43.1227 61.5948 44.1403 61.5948 45.3948Z" fill="white"/>
<path d="M64.4342 60.6157C64.4342 61.8702 63.4172 62.8872 62.1627 62.8872C60.9082 62.8872 59.8906 61.8702 59.8906 60.6157C59.8906 59.3612 60.9082 58.3436 62.1627 58.3436C63.4172 58.3436 64.4342 59.3612 64.4342 60.6157Z" fill="white"/>
<path d="M49.3272 63.6823C49.3272 64.9368 48.3103 65.9544 47.0551 65.9544C45.8006 65.9544 44.7837 64.9368 44.7837 63.6823C44.7837 62.4278 45.8006 61.4109 47.0551 61.4109C48.3103 61.4109 49.3272 62.4278 49.3272 63.6823Z" fill="white"/>
<path d="M29.9034 29.0382C29.9034 30.2927 28.8865 31.3096 27.632 31.3096C26.3775 31.3096 25.3599 30.2927 25.3599 29.0382C25.3599 27.7837 26.3775 26.7661 27.632 26.7661C28.8865 26.7661 29.9034 27.7837 29.9034 29.0382Z" fill="white"/>
<path d="M29.9034 44.4863C29.9034 45.7408 28.8865 46.7578 27.632 46.7578C26.3775 46.7578 25.3599 45.7408 25.3599 44.4863C25.3599 43.2312 26.3775 42.2142 27.632 42.2142C28.8865 42.2142 29.9034 43.2312 29.9034 44.4863Z" fill="white"/>
<path d="M29.9034 36.7623C29.9034 38.0168 28.8865 39.0338 27.632 39.0338C26.3775 39.0338 25.3599 38.0168 25.3599 36.7623C25.3599 35.5078 26.3775 34.4902 27.632 34.4902C28.8865 34.4902 29.9034 35.5078 29.9034 36.7623Z" fill="white"/>
<path d="M45.3516 29.0382C45.3516 30.2927 44.3347 31.3096 43.0795 31.3096C41.825 31.3096 40.8081 30.2927 40.8081 29.0382C40.8081 27.7837 41.825 26.7661 43.0795 26.7661C44.3347 26.7661 45.3516 27.7837 45.3516 29.0382Z" fill="white"/>
<path d="M45.3516 44.4863C45.3516 45.7408 44.3347 46.7578 43.0795 46.7578C41.825 46.7578 40.8081 45.7408 40.8081 44.4863C40.8081 43.2312 41.825 42.2142 43.0795 42.2142C44.3347 42.2142 45.3516 43.2312 45.3516 44.4863Z" fill="white"/>
<path d="M45.3516 36.7623C45.3516 38.0168 44.3347 39.0338 43.0795 39.0338C41.825 39.0338 40.8081 38.0168 40.8081 36.7623C40.8081 35.5078 41.825 34.4902 43.0795 34.4902C44.3347 34.4902 45.3516 35.5078 45.3516 36.7623Z" fill="white"/>
</g>
<defs>
<linearGradient id="paint0_linear_42_17" x1="13.1802" y1="13.1802" x2="76.8198" y2="76.8198" gradientUnits="userSpaceOnUse">
<stop stop-color="#00F38D"/>
<stop offset="0.7" stop-color="#507C5C"/>
</linearGradient>
<clipPath id="clip0_42_17">
<rect width="90" height="90" fill="white"/>
</clipPath>
</defs>
</svg>
